# xmcd
#
# Track frame offsets: 
#        150
#        14204
#        26914
#        38475
#        53384
#        65373
#        77959
#        93858
#        107360
#        119174
#        132028
#        145522
#        158450
#
# Disc length: 2299 seconds
#
# Revision: 0
# Processed by: cddbd v1.5.2PL0 Copyright (c) Steve Scherf et al.
# Submitted via: ExactAudioCopy v0.99pb4
#
DISCID=9d08f90d
DTITLE=Logic - Hearts and Minds
DYEAR=2008
DGENRE=Country
TTITLE0=Belfast 69
TTITLE1=I Didn't Know I Loved You
TTITLE2=Walking My Baby Back Home
TTITLE3=Two Religions
TTITLE4=This Foolish Heart
TTITLE5=It Must Be Love
TTITLE6=Lover,Friend and Wife
TTITLE7=Love Affair
TTITLE8=First Summer Love
TTITLE9=Feeling Kind Of Lonely Tonight
TTITLE10=Shotdown
TTITLE11=I Think About You
TTITLE12=Together As One
EXTD=
EXTT0=
EXTT1=
EXTT2=
EXTT3=
EXTT4=
EXTT5=
EXTT6=
EXTT7=
EXTT8=
EXTT9=
EXTT10=
EXTT11=
EXTT12=
PLAYORDER=
